<?xml version="1.0" encoding="UTF-8" standalone="no"?>
<!-- Created with Inkscape (http://www.inkscape.org/) -->

<svg
   width="35.963997mm"
   height="35.473mm"
   viewBox="0 0 35.963997 35.473"
   version="1.1"
   id="svg5"
   xml:space="preserve"
   sodipodi:docname="C:\Users\user\AppData\Local\Temp\ink_ext_XXXXXX.svgKU0KY1"
   xmlns:inkscape="http://www.inkscape.org/namespaces/inkscape"
   xmlns:sodipodi="http://sodipodi.sourceforge.net/DTD/sodipodi-0.dtd"
   xmlns="http://www.w3.org/2000/svg"
   xmlns:svg="http://www.w3.org/2000/svg"><sodipodi:namedview
     id="namedview7"
     pagecolor="#ffffff"
     bordercolor="#000000"
     borderopacity="0.25"
     inkscape:showpageshadow="2"
     inkscape:pageopacity="0"
     inkscape:pagecheckerboard="0"
     inkscape:deskcolor="#d1d1d1"
     inkscape:document-units="mm"
     showgrid="false"
     inkscape:zoom="0.75544332"
     inkscape:cx="332.9171"
     inkscape:cy="356.08231"
     inkscape:window-width="1920"
     inkscape:window-height="1046"
     inkscape:window-x="-11"
     inkscape:window-y="-11"
     inkscape:window-maximized="1"
     inkscape:current-layer="layer1"><sodipodi:guide
       position="0,35.472998"
       orientation="0,1"
       id="guide8425"
       inkscape:locked="false" /><sodipodi:guide
       position="0,24.823872"
       orientation="0,1"
       id="guide8427"
       inkscape:locked="false" /><sodipodi:guide
       position="-0.24765415,6.2498107"
       orientation="0,1"
       id="guide8429"
       inkscape:locked="false" /><inkscape:grid
       type="xygrid"
       id="grid20658"
       originx="0"
       originy="0" /></sodipodi:namedview><defs
     id="defs2" /><g
     inkscape:label="Layer 1"
     inkscape:groupmode="layer"
     id="layer1"
     transform="translate(20.313679,30.820755)"><path
       style="display:inline;fill:#a7b623;fill-opacity:1;stroke:none;stroke-width:0.264583"
       d="m -2.2349273,-15.342372 c 0.309568,0.74296 1.64226299,2.556902 1.64226299,2.556902 l 0.81105604,-1.338625 1.07575097,-1.7755 c 0,0 1.060768,-1.925141 1.5478391,-2.909936 0.19763,-0.399582 0.41865,-0.792037 0.557223,-1.215736 0.159561,-0.487869 0.266516,-0.99697 0.309568,-1.508461 0.05023,-0.596743 0.02348,-1.202758 -0.06191,-1.795492 -0.106347,-0.738202 -0.296114,-1.46835 -0.55722,-2.166974 -0.161559,-0.432272 -0.3757861,-0.846171 -0.6191361,-1.238269 -0.128431,-0.206935 -0.284181,-0.396174 -0.440584,-0.582869 -0.173212,-0.206759 -0.360818,-0.401267 -0.550034,-0.593489 -0.460791,-0.468112 -0.91439097,-0.947676 -1.42401197,-1.362096 -0.62178904,-0.505634 -1.98123103,-1.362099 -1.98123103,-1.362099 0,0 1.26535599,1.151702 1.73357903,1.857406 0.474986,0.715897 0.785635,1.536083 1.052528,2.352715 0.18358797,0.561738 0.31813097,1.145013 0.37148297,1.733577 0.06151,0.678579 0.03333,1.368474 -0.06191,2.043146 -0.067702,0.479601 -0.21923437,0.944304 -0.35975297,1.407829 -0.1476528,0.487058 -0.3279805,0.963784 -0.507035,1.440194 -0.1954997,0.520166 -0.373199,1.049534 -0.619136,1.547839 -0.39318004,0.796644 -1.36209903,2.290802 -1.36209903,2.290802 z"
       id="path8524"
       sodipodi:nodetypes="ccccaaaaaaaaacaaaaaaacc" /><path
       style="display:inline;fill:#a7b623;fill-opacity:1;stroke:none;stroke-width:0.264583"
       d="m -2.2968403,-10.389289 -1.795494,-2.476541 -2.2907989,3.6529009 -0.928704,1.98123 c 0,0 -0.354024,0.69144 -0.495308,1.05253 -0.142432,0.36403 -0.265005,0.73741 -0.353347,1.1182 -0.06437,0.27746 -0.1298741,0.56008 -0.1275791,0.8449 0.0021,0.26589 -0.130816,0.74506 0.1317961,0.78674 0.716099,0.11366 1.315082,-0.66082 1.315082,-0.66082 l 2.2535559,-1.3151 0.560978,-1.717 0.863034,-1.90494 z"
       id="path8528"
       sodipodi:nodetypes="ccccaaasccccc" /><path
       style="display:inline;opacity:1;fill:#a7b623;fill-opacity:1;stroke:none;stroke-width:0.264583"
       d="m -5.2311343,-2.0972692 -2.3790029,1.34771004 c 0,0 0.807975,1.64147001 1.350829,2.37150006 0.3571279,0.48027 0.7989269,0.89376 1.2382709,1.30018 0.629971,0.58276 1.996712,1.62523 1.996712,1.62523 l -0.869218,-0.84115 c 0,0 -0.328095,-0.44585 -0.47209,-0.68182 -0.184628,-0.30255 -0.3538,-0.61549 -0.500618,-0.93809 -0.09605,-0.21106 -0.182869,-0.42744 -0.247654,-0.65009 -0.114776,-0.39446 -0.21763,-0.79760005 -0.247657,-1.20732005 -0.05676,-0.77453001 0.130428,-2.32615005 0.130428,-2.32615005 z"
       id="path8530"
       sodipodi:nodetypes="ccaaccaaaac" /><path
       style="display:inline;opacity:1;fill:#413d19;fill-opacity:1;stroke:none;stroke-width:0.264583"
       d="m -2.7302353,-30.573104 -1.114444,1.485927 c 0,0 -0.254373,0.325375 -0.371483,0.495308 -0.263172,0.381877 -0.544357,0.757255 -0.74296,1.176356 -0.251527,0.530783 -0.418075,1.101023 -0.557223,1.671666 -0.09404,0.385676 -0.166326,0.779855 -0.18574,1.176356 -0.01719,0.35103 0.0399,0.701771 0.06191,1.052531 0.01943,0.309646 0.02108,0.621147 0.06191,0.928704 0.05539,0.41727 0.116437,0.838314 0.247653,1.238271 0.106492,0.324595 0.297672,0.615204 0.433395,0.928703 0.132464,0.305971 0.237569,0.623361 0.371481,0.928701 0.211328,0.48186 0.435538,0.958638 0.68105,1.424011 0.422833,0.80149 1.362096,2.352715 1.362096,2.352715 l 2.97185103,4.519685 0.92870297,1.3621009 c 0,0 1.6693111,-0.8382499 2.5384551,-1.1763599 0.444045,-0.172741 0.907695,-0.290101 1.362099,-0.433391 0.329938,-0.10404 0.649783,-0.25027 0.990616,-0.30957 0.4884,-0.085 0.990698,-0.0844 1.485923,-0.0619 0.623969,0.0284 1.26566,0.0477 1.857407,0.24765 0.6305322,0.21305 1.1887522,0.608361 1.7335722,0.990621 0.88691,0.6222799 1.74057,1.3099599 2.47655,2.1050599 0.69264,0.74828 1.79549,2.47654 1.79549,2.47654 0,0 -1.06168,-0.88141 -1.60975,-1.30018 -0.36411,-0.27821 -0.71297,-0.58399 -1.11445,-0.80488 -0.68161,-0.37502 -1.41539,-0.66589 -2.16697,-0.86679 -0.56393,-0.15074 -1.1500032,-0.23439 -1.7335782,-0.24765 -0.642596,-0.0146 -1.287563,0.0673 -1.919319,0.18574 -0.674286,0.12641 -1.334362,0.32874 -1.981231,0.55722 -0.444602,0.15704 -0.890717,0.32341 -1.300187,0.55722 -0.333369,0.19035 -0.928703,0.68105 -0.928703,0.68105 0,0 0.551654,1.29498 0.681051,1.98123 0.183714,0.97431 0.233277,1.98643 0.123827,2.97185 -0.05196,0.4678099 -0.217056,0.9173699 -0.366937,1.36355994 -0.106205,0.31617 -0.221767,0.63153 -0.376026,0.92724001 -0.2276881,0.43647 -0.8048761,1.23828005 -0.8048761,1.23828005 l -1.60975097,1.79549 -2.10506203,1.48592 0.74296299,-0.99062 0.80487604,-1.11444 0.619135,-1.17635 c 0,0 0.41123997,-0.80175005 0.49530797,-1.23828005 0.126839,-0.65863001 0.01411,-1.34161005 10e-7,-2.01219005 -0.01208,-0.5741499 -0.08154,-1.3118199 -0.09359,-1.8876999 -0.0085,-0.40804 0.0657,-0.65777 -0.03024,-1.05319 -0.05497,-0.22657 -0.29409,-0.63461 -0.29409,-0.63461 l -1.25374904,-0.7894 -1.54783696,-1.05253 1.05253,-0.71201 -1.981233,-3.1885409 -2.60037,-3.900557 c 0,0 -1.3366179,-2.490404 -1.9193189,-3.776724 -0.229298,-0.506177 -0.492782,-1.006704 -0.619136,-1.547839 -0.2400611,-1.028107 -0.4042181,-2.113501 -0.2476521,-3.15759 0.125032,-0.833804 0.5234871,-1.613349 0.9287031,-2.352715 0.355142,-0.648 0.806109,-1.246019 1.300184,-1.795491 0.3712939,-0.412926 1.2382709,-1.114446 1.2382709,-1.114446 z"
       id="path12030"
       sodipodi:nodetypes="ccaaaaaaaaaacccaaaaaaacaaaaaaacaaaaccccccasssccccccaaaaacc" /><path
       style="display:inline;opacity:1;fill:#413d19;fill-opacity:1;stroke:none;stroke-width:0.264583"
       d="m -4.5876423,-5.5600391 2.352713,1.39306 c 0,0 -1.315111,0.93693 -1.981232,1.39305 -0.493535,0.33795 -0.995379,0.6635899 -1.493069,0.9953799 -0.431013,0.28735 -0.8345859,0.62087 -1.2930389,0.86203004 -0.491799,0.2587 -1.017116,0.45444 -1.5478391,0.61914 -0.808131,0.25079001 -1.6341267,0.47780001 -2.4765427,0.55722001 -0.616744,0.0581 -1.244862,0.0305 -1.857404,-0.0619 -0.698019,-0.10534 -1.399479,-0.26736 -2.043147,-0.55722001 -0.65241,-0.2938 -1.236411,-0.72983004 -1.795494,-1.17635004 -0.650056,-0.51918 -1.795491,-1.7335799 -1.795491,-1.7335799 l -1.362099,-1.85741 1.300186,1.05253 c 0,0 0.940771,0.78564 1.485923,1.05253 0.639148,0.3129 1.347999,0.46685 2.043147,0.61913 0.59017,0.12928 1.191655,0.2278 1.795492,0.24766 0.579019,0.0191 1.165787,-0.009 1.733579,-0.12383 0.940271,-0.19053 1.8365463,-0.5647 2.7241957,-0.9287 0.614899,-0.25215 1.7954941,-0.86679 1.7954941,-0.86679 z"
       id="path17951"
       sodipodi:nodetypes="ccaaaaaaaacccaaaaacc" /><path
       style="display:inline;opacity:1;fill:#367507;fill-opacity:1;stroke:none;stroke-width:0.264583"
       d="m -5.9641173,-9.7445091 -1.3402099,2.57472 c 0,0 -1.2974041,-0.76168 -1.9887441,-1.05253 -0.4993284,-0.21007 -1.0254957,-0.35172 -1.5478397,-0.4953 -0.530992,-0.14596 -1.067625,-0.27477 -1.609752,-0.37149 -0.551615,-0.0984 -1.108181,-0.24379 -1.667587,-0.21172 -0.468155,0.0268 -0.921479,0.18674 -1.366175,0.33552 -0.745262,0.24934 -1.490268,0.52913 -2.166974,0.9287 -0.5459,0.32233 -1.500302,1.16885 -1.500302,1.16885 l -0.85241,0.75047 0.564731,-0.86303 0.983105,-1.30394 c 0,0 1.125262,-1.10796 1.733579,-1.60975 0.512677,-0.4228999 1.017932,-0.8739799 1.609751,-1.1763599 0.714856,-0.365241 1.495632,-0.632851 2.290802,-0.742961 0.531906,-0.0737 1.0765,-10e-4 1.609752,0.0619 0.52251,0.0619 1.5478383,0.30957 1.5478383,0.30957 l 1.5478395,0.495311 z"
       id="path20656"
       sodipodi:nodetypes="ccaaaaaaccccaaaaccc" /><path
       style="display:inline;opacity:1;fill:#367507;fill-opacity:1;stroke:none;stroke-width:0.264583"
       d="m -3.5970263,-8.2842291 -0.997804,2.72795 2.429006,1.61694 3.274227,2.0321999 0.06191,-1.6716599 -0.18573997,-1.67167 -0.185741,-0.30957 -1.300183,-0.80487 -1.59632003,-1.06064 z"
       id="path20631"
       sodipodi:nodetypes="cccccccccc" /><path
       style="display:inline;opacity:1;fill:#367507;fill-opacity:1;stroke:none;stroke-width:0.264583"
       d="m 3.7563068,-3.5240791 c 0,0 1.131139,0.66448 1.747958,0.87398 0.617029,0.20957 1.273277,0.2862 1.919319,0.37148 0.574349,0.0758 1.154774,0.14853 1.733579,0.12383 0.396615,-0.0169 0.787984,-0.10353 1.1763532,-0.18574 0.31344,-0.0663 0.61937,-0.16423 0.92871,-0.24766 0.22719,-0.0613 0.46204,-0.0997 0.68105,-0.18574 0.45536,-0.17892 0.88436,-0.42324 1.30018,-0.68104 0.32501,-0.20151 0.9287,-0.67354 0.9287,-0.67354 l 0.94794,-0.84998 0.17368,-0.1663 0.1706,-0.18536 0.1318,-0.12154 -0.19075,0.26759 -0.65072,1.01525 c 0,0 -0.90807,1.06908 -1.38742,1.58066 -0.45899,0.4898499 -0.89138,1.0154499 -1.42401,1.4240199 -0.49153,0.37704004 -1.04622,0.67144004 -1.60976,0.92870004 -0.5165412,0.23581001165 -1.0516302,0.45270001 -1.6097482,0.55722001 -0.548075,0.10264 -1.114933,0.0931 -1.671664,0.0619 -0.416722,-0.0233 -0.830148,-0.0983 -1.238271,-0.18574 -0.523913,-0.11219 -1.547839,-0.43339001 -1.547839,-0.43339001 l -1.052531,-0.4334 0.433395,-1.42401004 z"
       id="path20633"
       sodipodi:nodetypes="caaaaaaacccccccaaaaaacccc" /></g></svg>
